<svg
                          viewBox="0 0 94 94"
                          fill="none"
                          xmlns="http://www.w3.org/2000/svg"
                          className="h-16 w-16 flex-none md:h-20 md:w-20 xl:h-24 xl:w-24"
                        >
                          <g clip-path="url(#subtitles-transcription_svg__a)">
                            <rect
                              y="-0.002"
                              width="94"
                              height="94"
                              rx="24"
                              fill="#FFD6EF"
                            ></rect>
                            <rect
                              width="94"
                              height="94"
                              rx="24"
                              fill="#EDFFD9"
                            ></rect>
                            <rect
                              x="18.797"
                              y="75.2"
                              width="56.4"
                              height="56.4"
                              rx="5.64"
                              transform="rotate(-90 18.797 75.2)"
                              fill="#006000"
                            ></rect>
                            <g filter="url(#subtitles-transcription_svg__b)">
                              <rect
                                x="14.098"
                                y="54.049"
                                width="47.047"
                                height="16.445"
                                rx="8.222"
                                fill="url(#subtitles-transcription_svg__c)"
                              ></rect>
                            </g>
                            <g filter="url(#subtitles-transcription_svg__d)">
                              <rect
                                x="63.452"
                                y="54.242"
                                width="16.445"
                                height="16.445"
                                rx="8.222"
                                fill="url(#subtitles-transcription_svg__e)"
                              ></rect>
                            </g>
                            <path
                              d="M53.102 26.747h-9.237V23.5H41.63v3.247h-9.236v2.235h15.01c-.817 3.58-2.473 6.571-4.345 8.981a33.87 33.87 0 0 1-3.635-6.194l-2.036.92a36.121 36.121 0 0 0 4.19 7.024 30.658 30.658 0 0 1-5.284 4.55c-.541.366-.984.638-1.29.818a14.713 14.713 0 0 1-.431.244l-.02.01-.002.002.515.991c.515.992.515.992.516.991l.004-.002.01-.005.03-.016.111-.06c.094-.053.23-.129.4-.23.342-.2.826-.498 1.41-.893A32.898 32.898 0 0 0 43 41.465a35.673 35.673 0 0 0 3.695 3.696l1.458-1.694a33.49 33.49 0 0 1-3.669-3.704c2.251-2.79 4.302-6.378 5.206-10.781h3.412v-2.235ZM62.071 51.7l-6.215-16.45h-2.693L47.041 51.7h2.368l1.274-3.563h7.583l1.299 3.563h2.506Zm-7.626-14.115 3.097 8.578h-6.148l3.051-8.578Z"
                              fill="#EDFFD9"
                            ></path>
                            <path
                              d="M53.102 26.747h-9.237V23.5H41.63v3.247h-9.236v2.235h15.01c-.817 3.58-2.473 6.571-4.345 8.981a33.87 33.87 0 0 1-3.635-6.194l-2.036.92a36.121 36.121 0 0 0 4.19 7.024 30.658 30.658 0 0 1-5.284 4.55c-.541.366-.984.638-1.29.818a14.713 14.713 0 0 1-.431.244l-.02.01-.002.002.515.991c.515.992.515.992.516.991l.004-.002.01-.005.03-.016.111-.06c.094-.053.23-.129.4-.23.342-.2.826-.498 1.41-.893A32.898 32.898 0 0 0 43 41.465a35.673 35.673 0 0 0 3.695 3.696l1.458-1.694a33.49 33.49 0 0 1-3.669-3.704c2.251-2.79 4.302-6.378 5.206-10.781h3.412v-2.235ZM62.071 51.7l-6.215-16.45h-2.693L47.041 51.7h2.368l1.274-3.563h7.583l1.299 3.563h2.506Zm-7.626-14.115 3.097 8.578h-6.148l3.051-8.578Z"
                              stroke="#EDFFD9"
                            ></path>
                          </g>
                          <defs>
                            <linearGradient
                              id="subtitles-transcription_svg__c"
                              x1="98.499"
                              y1="88"
                              x2="5.435"
                              y2="5.834"
                              gradientUnits="userSpaceOnUse"
                            >
                              <stop
                                offset="0.392"
                                stop-color="#B6FF60"
                                stop-opacity="0.71"
                              ></stop>
                              <stop
                                offset="0.777"
                                stop-color="#006000"
                                stop-opacity="0.73"
                              ></stop>
                            </linearGradient>
                            <linearGradient
                              id="subtitles-transcription_svg__e"
                              x1="51.499"
                              y1="85.5"
                              x2="69.036"
                              y2="29.469"
                              gradientUnits="userSpaceOnUse"
                            >
                              <stop
                                offset="0.392"
                                stop-color="#B6FF60"
                                stop-opacity="0.71"
                              ></stop>
                              <stop
                                offset="0.777"
                                stop-color="#006000"
                                stop-opacity="0.73"
                              ></stop>
                            </linearGradient>
                            <filter
                              id="subtitles-transcription_svg__b"
                              x="8.039"
                              y="48.863"
                              width="59.163"
                              height="28.561"
                              filterUnits="userSpaceOnUse"
                              color-interpolation-filters="sRGB"
                            >
                              <feFlood
                                flood-opacity="0"
                                result="BackgroundImageFix"
                              ></feFlood>
                              <feGaussianBlur
                                in="BackgroundImageFix"
                                stdDeviation="2.179"
                              ></feGaussianBlur>
                              <feComposite
                                in2="SourceAlpha"
                                operator="in"
                                result="effect1_backgroundBlur_406_11811"
                              ></feComposite>
                              <feColorMatrix
                                in="SourceAlpha"
                                values="0 0 0 0 0 0 0 0 0 0 0 0 0 0 0 0 0 0 127 0"
                                result="hardAlpha"
                              ></feColorMatrix>
                              <feOffset dy="0.872"></feOffset>
                              <feGaussianBlur stdDeviation="3.029"></feGaussianBlur>
                              <feComposite
                                in2="hardAlpha"
                                operator="out"
                              ></feComposite>
                              <feColorMatrix values="0 0 0 0 0 0 0 0 0 0 0 0 0 0 0 0 0 0 0.09 0"></feColorMatrix>
                              <feBlend
                                in2="effect1_backgroundBlur_406_11811"
                                result="effect2_dropShadow_406_11811"
                              ></feBlend>
                              <feBlend
                                in="SourceGraphic"
                                in2="effect2_dropShadow_406_11811"
                                result="shape"
                              ></feBlend>
                            </filter>
                            <filter
                              id="subtitles-transcription_svg__d"
                              x="57.394"
                              y="49.055"
                              width="28.561"
                              height="28.561"
                              filterUnits="userSpaceOnUse"
                              color-interpolation-filters="sRGB"
                            >
                              <feFlood
                                flood-opacity="0"
                                result="BackgroundImageFix"
                              ></feFlood>
                              <feGaussianBlur
                                in="BackgroundImageFix"
                                stdDeviation="2.179"
                              ></feGaussianBlur>
                              <feComposite
                                in2="SourceAlpha"
                                operator="in"
                                result="effect1_backgroundBlur_406_11811"
                              ></feComposite>
                              <feColorMatrix
                                in="SourceAlpha"
                                values="0 0 0 0 0 0 0 0 0 0 0 0 0 0 0 0 0 0 127 0"
                                result="hardAlpha"
                              ></feColorMatrix>
                              <feOffset dy="0.872"></feOffset>
                              <feGaussianBlur stdDeviation="3.029"></feGaussianBlur>
                              <feComposite
                                in2="hardAlpha"
                                operator="out"
                              ></feComposite>
                              <feColorMatrix values="0 0 0 0 0 0 0 0 0 0 0 0 0 0 0 0 0 0 0.09 0"></feColorMatrix>
                              <feBlend
                                in2="effect1_backgroundBlur_406_11811"
                                result="effect2_dropShadow_406_11811"
                              ></feBlend>
                              <feBlend
                                in="SourceGraphic"
                                in2="effect2_dropShadow_406_11811"
                                result="shape"
                              ></feBlend>
                            </filter>
                            <clipPath id="subtitles-transcription_svg__a">
                              <rect
                                y="-0.002"
                                width="94"
                                height="94"
                                rx="24"
                                fill="#fff"
                              ></rect>
                            </clipPath>
                          </defs>
                        </svg>